<?xml version="1.0" encoding="UTF-8" standalone="no"?>
<svg
   id="Layer_1"
   data-name="Layer 1"
   viewBox="0 0 24 24"
   width="512"
   height="512"
   version="1.1"
   sodipodi:docname="clean-green.svg"
   inkscape:version="1.4.3 (fcd0343856, 2026-01-01)"
   xmlns:inkscape="http://www.inkscape.org/namespaces/inkscape"
   xmlns:sodipodi="http://sodipodi.sourceforge.net/DTD/sodipodi-0.dtd"
   xmlns="http://www.w3.org/2000/svg"
   xmlns:svg="http://www.w3.org/2000/svg">
  <defs
     id="defs2" />
  <sodipodi:namedview
     id="namedview2"
     pagecolor="#ffffff"
     bordercolor="#666666"
     borderopacity="1.0"
     inkscape:showpageshadow="2"
     inkscape:pageopacity="0.0"
     inkscape:pagecheckerboard="0"
     inkscape:deskcolor="#d1d1d1"
     inkscape:zoom="0.81054688"
     inkscape:cx="284.3759"
     inkscape:cy="365.18554"
     inkscape:window-width="1920"
     inkscape:window-height="1032"
     inkscape:window-x="0"
     inkscape:window-y="24"
     inkscape:window-maximized="1"
     inkscape:current-layer="Layer_1" />
  <path
     d="M20.526,16.3a14.565,14.565,0,0,0,.862-4.561,2.01,2.01,0,0,0-.608-1.5L18.961,8.469l5.045-5.045-1.43-1.43L17.514,7.056,15.307,4.9A2,2,0,0,0,12.6,4.826a23.888,23.888,0,0,1-2.09,1.632Z"
     id="path1" />
  <path
     d="M8.771,7.557A12.334,12.334,0,0,1,6.227,8.694L0,10.521v.749A12.431,12.431,0,0,0,.93,16l1.708-.279a9.6,9.6,0,0,0,4.3-2.434l1.4,1.43a11.649,11.649,0,0,1-5.295,2.961l-1.156.191a12.911,12.911,0,0,0,2.5,2.925l2.026-.752,1.4-.7A9.544,9.544,0,0,0,11.4,16.2l.519-.761,1.652,1.126-.518.761a11.535,11.535,0,0,1-4.347,3.8l-1.55.773-.815.3A13.142,13.142,0,0,0,13.007,24h1.238l.258-.18a16.5,16.5,0,0,0,5.144-5.577Z"
     id="path2" />
  <path
     style="fill:#1c8f1c;stroke:#1c8f1c;stroke-width:1.23373;stroke-opacity:1"
     d="M 331.897,242.48675 C 274.23216,185.86925 226.88313,139.03974 226.67693,138.42116 c -0.20619,-0.61858 4.22522,-4.48627 9.84758,-8.59488 5.62236,-4.10861 16.60706,-12.78208 24.41043,-19.27439 16.44801,-13.684537 23.5489,-17.073003 35.77831,-17.073003 15.60561,0 19.18645,2.266708 49.43204,31.291013 14.75601,14.16017 27.29496,25.74576 27.86436,25.74576 0.56939,0 25.04891,-24.00889 54.39892,-53.353093 l 53.36368,-53.353096 14.49107,14.491067 14.49106,14.491068 -53.6375,53.648134 -53.63749,53.64813 22.90269,23.15125 c 28.52576,28.83535 28.96655,29.63766 28.64749,52.14401 -0.23221,16.38077 -2.67076,35.84224 -6.64732,53.0506 -3.38809,14.66183 -9.95703,37.01385 -10.87466,37.00298 -0.42098,-0.005 -47.94575,-46.33247 -105.61059,-102.94996 z"
     id="path3"
     transform="scale(0.046875)" />
  <path
     style="fill:#1c8f1c;stroke:#1c8f1c;stroke-width:1.23373;stroke-opacity:1"
     d="m 267.10361,511.15453 c -39.99454,-1.53524 -78.86014,-11.5257 -115.04578,-29.57267 -7.29446,-3.63799 -13.26265,-7.05539 -13.26265,-7.59423 0,-0.53885 2.9147,-2.00919 6.47711,-3.26744 8.47588,-2.99371 45.58843,-21.51416 57.55299,-28.72095 21.71461,-13.07969 44.27841,-32.25999 60.26319,-51.2266 6.85499,-8.13373 22.06518,-28.87979 26.56635,-36.2354 0.84228,-1.37643 -30.38532,-23.61379 -34.69123,-24.70382 -1.39204,-0.35239 -3.23324,1.37321 -5.74887,5.38793 -16.81711,26.83852 -42.64657,52.84817 -67.59741,68.06896 -15.60172,9.51752 -45.11446,23.52188 -66.43196,31.52323 l -21.220395,7.96491 -6.886091,-6.21509 C 73.858191,424.63098 52.962315,399.78839 43.506552,384.76134 l -2.04399,-3.2483 13.19643,-2.04836 c 38.36183,-5.95456 86.270448,-30.16223 117.755468,-59.50048 3.22313,-3.00337 5.86024,-5.84678 5.86024,-6.31871 0,-0.47193 -6.75477,-7.62909 -15.01061,-15.90478 l -15.0106,-15.04674 -9.3364,7.99818 c -29.51762,25.28673 -62.183883,40.68199 -99.215621,46.75926 -10.124834,1.6616 -18.828545,2.76166 -19.341582,2.44458 C 18.455633,338.7191 9.2744201,308.53736 6.285552,293.62892 2.4453013,274.47378 0.61686747,256.79138 0.61686747,238.80825 V 224.96228 L 58.910843,207.94871 C 135.46907,185.60458 150.99895,180.43185 170.71167,170.70984 l 16.4948,-8.13499 12.49797,12.23712 c 67.59836,66.1875 160.47805,157.44773 186.34069,183.09162 l 31.96319,31.69288 -3.47101,5.99213 c -22.90328,39.53873 -59.28907,78.90914 -99.1641,107.29822 L 302.57291,512 289.46478,511.75486 c -7.20949,-0.13483 -17.27201,-0.40498 -22.36117,-0.60033 z"
     id="path4"
     transform="scale(0.046875)" />
</svg>
