<?xml version="1.0" encoding="UTF-8" standalone="no"?>
<!-- Uploaded to: SVG Repo, www.svgrepo.com, Generator: SVG Repo Mixer Tools -->

<svg
   width="800px"
   height="800px"
   viewBox="0 0 24 24"
   fill="none"
   version="1.1"
   id="svg3"
   sodipodi:docname="queue-green.svg"
   inkscape:version="1.4.2 (2aeb623e1d, 2025-05-12)"
   xmlns:inkscape="http://www.inkscape.org/namespaces/inkscape"
   xmlns:sodipodi="http://sodipodi.sourceforge.net/DTD/sodipodi-0.dtd"
   xmlns="http://www.w3.org/2000/svg"
   xmlns:svg="http://www.w3.org/2000/svg">
  <defs
     id="defs3" />
  <sodipodi:namedview
     id="namedview3"
     pagecolor="#ffffff"
     bordercolor="#666666"
     borderopacity="1.0"
     inkscape:showpageshadow="2"
     inkscape:pageopacity="0.0"
     inkscape:pagecheckerboard="0"
     inkscape:deskcolor="#d1d1d1"
     showgrid="false"
     inkscape:zoom="1.0375"
     inkscape:cx="400"
     inkscape:cy="400"
     inkscape:window-width="1920"
     inkscape:window-height="1032"
     inkscape:window-x="0"
     inkscape:window-y="24"
     inkscape:window-maximized="1"
     inkscape:current-layer="svg3" />
  <path
     d="M5.75 2.01999C4.7835 2.01999 4 2.80349 4 3.76999V6.26999C4 7.23649 4.7835 8.01999 5.75 8.01999H18.25C19.2165 8.01999 20 7.23649 20 6.26999V3.76999C20 2.80349 19.2165 2.01999 18.25 2.01999H5.75Z"
     fill="#212121"
     id="path1" />
  <path
     d="M5.75 9.01999C4.7835 9.01999 4 9.80349 4 10.77V13.27C4 14.2365 4.7835 15.02 5.75 15.02H18.25C19.2165 15.02 20 14.2365 20 13.27V10.77C20 9.80349 19.2165 9.01999 18.25 9.01999H5.75Z"
     fill="#212121"
     id="path2" />
  <path
     d="M5.75 16.02C4.7835 16.02 4 16.8035 4 17.77V20.27C4 21.2365 4.7835 22.02 5.75 22.02H18.25C19.2165 22.02 20 21.2365 20 20.27V17.77C20 16.8035 19.2165 16.02 18.25 16.02H5.75Z"
     fill="#212121"
     id="path3" />
  <path
     style="fill:#1c8f1c;stroke-width:0.963855"
     d="m 179.43879,265.50991 c -15.93715,-3.45931 -31.98415,-15.9403 -39.02215,-30.35056 -6.42894,-13.16317 -6.44074,-13.28684 -6.44074,-67.49683 0,-45.62167 0.12537,-49.29013 1.92496,-56.32645 5.04058,-19.70847 20.39367,-35.303085 40.96661,-41.611065 5.5423,-1.699354 14.83454,-1.773198 223.13253,-1.773198 208.29799,0 217.59024,0.07384 223.13253,1.773198 20.57294,6.30798 35.92603,21.902595 40.96661,41.611065 1.79959,7.03632 1.92496,10.70478 1.92496,56.32645 0,40.4225 -0.25068,49.78613 -1.46027,54.54461 -5.46404,21.49539 -23.26748,38.857 -44.4473,43.34426 -9.63233,2.04075 -431.26765,2.00106 -440.67774,-0.0415 z"
     id="path4"
     transform="scale(0.03)" />
  <path
     style="fill:#1c8f1c;stroke-width:0.963855"
     d="m 179.27711,498.74351 c -15.68856,-3.36605 -31.84373,-15.97388 -38.86513,-30.33114 -6.56281,-13.41951 -6.55012,-13.27676 -6.22341,-70.03837 0.28749,-49.94702 0.33403,-51.02565 2.47542,-57.3677 2.75951,-8.1727 10.38148,-19.62939 16.87754,-25.36889 5.7744,-5.10188 18.03025,-11.3831 25.73558,-13.18968 7.79985,-1.82874 433.64593,-1.82874 441.44578,0 7.70533,1.80658 19.96119,8.0878 25.73558,13.18968 6.49606,5.7395 14.11803,17.19619 16.87754,25.36889 2.14139,6.34205 2.18793,7.42068 2.47542,57.3677 0.2503,43.48542 0.075,51.77323 -1.20278,56.86747 -5.4572,21.75669 -23.12037,39.0344 -44.54641,43.5743 -9.66132,2.0471 -431.22928,1.97799 -440.78513,-0.0723 z"
     id="path5"
     transform="scale(0.03)" />
  <path
     style="fill:#1c8f1c;stroke-width:0.963855"
     d="m 177.54382,731.54491 c -16.25328,-4.2581 -30.42334,-15.87978 -37.5806,-30.82202 -2.15837,-4.50602 -4.41516,-10.79518 -5.01511,-13.9759 -0.74993,-3.97593 -0.99697,-21.44555 -0.79054,-55.90362 l 0.30026,-50.12048 2.37322,-6.74699 c 5.08644,-14.46056 16.46318,-27.07006 30.39787,-33.69173 13.11359,-6.23148 -3.0726,-5.82634 232.77108,-5.82634 236.17159,0 219.5924,-0.42105 232.99661,5.91722 13.79734,6.52416 24.54815,18.43409 29.91531,33.14068 l 2.63025,7.20716 0.28113,50.90413 c 0.31337,56.74196 0.32708,56.58772 -6.22758,70.05973 -2.59697,5.33765 -5.4313,9.12866 -10.83354,14.49026 -8.40855,8.34527 -15.84481,12.6402 -26.68605,15.41293 -7.3078,1.86902 -11.39978,1.90306 -222.47127,1.85097 -208.54157,-0.0515 -215.2387,-0.10866 -222.06104,-1.896 z"
     id="path6"
     transform="scale(0.03)" />
</svg>
