<?xml version="1.0" encoding="UTF-8" standalone="no"?>
<!-- Generator: Adobe Illustrator 25.0.0, SVG Export Plug-In . SVG Version: 6.00 Build 0)  -->

<svg
   version="1.1"
   id="Capa_1"
   x="0px"
   y="0px"
   viewBox="0 0 512 512"
   style="enable-background:new 0 0 512 512;"
   xml:space="preserve"
   width="512"
   height="512"
   sodipodi:docname="remove-green.svg"
   inkscape:version="1.4.2 (2aeb623e1d, 2025-05-12)"
   xmlns:inkscape="http://www.inkscape.org/namespaces/inkscape"
   xmlns:sodipodi="http://sodipodi.sourceforge.net/DTD/sodipodi-0.dtd"
   xmlns="http://www.w3.org/2000/svg"
   xmlns:svg="http://www.w3.org/2000/svg"><defs
   id="defs2" /><sodipodi:namedview
   id="namedview2"
   pagecolor="#ffffff"
   bordercolor="#666666"
   borderopacity="1.0"
   inkscape:showpageshadow="2"
   inkscape:pageopacity="0.0"
   inkscape:pagecheckerboard="0"
   inkscape:deskcolor="#d1d1d1"
   showgrid="false"
   inkscape:zoom="1.6210938"
   inkscape:cx="256"
   inkscape:cy="256"
   inkscape:window-width="1920"
   inkscape:window-height="1032"
   inkscape:window-x="0"
   inkscape:window-y="24"
   inkscape:window-maximized="1"
   inkscape:current-layer="Capa_1" />
<g
   id="g2">
	<path
   d="M170.698,448H72.757c-4.814-0.012-8.714-3.911-8.725-8.725V72.725c0.012-4.814,3.911-8.714,8.725-8.725h97.941   c17.673,0,32-14.327,32-32s-14.327-32-32-32H72.757C32.611,0.047,0.079,32.58,0.032,72.725v366.549   C0.079,479.42,32.611,511.953,72.757,512h97.941c17.673,0,32-14.327,32-32S188.371,448,170.698,448z"
   id="path1" />
	<path
   d="M483.914,188.117l-82.816-82.752c-12.501-12.495-32.764-12.49-45.259,0.011s-12.49,32.764,0.011,45.259l72.789,72.768   L138.698,224c-17.673,0-32,14.327-32,32s14.327,32,32,32l0,0l291.115-0.533l-73.963,73.963   c-12.042,12.936-11.317,33.184,1.618,45.226c12.295,11.445,31.346,11.436,43.63-0.021l82.752-82.752   c37.491-37.49,37.491-98.274,0.001-135.764c0,0-0.001-0.001-0.001-0.001L483.914,188.117z"
   id="path2" />
</g>















<path
   style="fill:#1c8f1c;stroke-width:0.616867;fill-opacity:1"
   d="M 66.621687,511.34484 C 54.920571,510.31758 41.771199,505.62891 32.019772,499.00685 27.02464,495.61472 18.660984,487.59007 14.721658,482.4099 10.469053,476.81776 4.6569354,464.80792 2.6217141,457.40723 L 0.9253012,451.23855 V 256 60.761446 L 2.5998017,54.693191 C 4.5116302,47.764878 9.1035444,37.747475 12.993153,32.019772 16.385283,27.02464 24.409925,18.660984 29.590104,14.721658 35.468047,10.251708 47.232255,4.6204401 54.592771,2.7534297 64.613876,0.21155618 72.937688,-0.09127269 126.45783,0.13890591 c 42.87112,0.1843794 50.03721,0.34428539 52.43374,1.17001819 12.04361,4.1496835 19.90317,12.4168989 22.56725,23.7377629 3.829,16.271099 -6.54996,33.287131 -22.90132,37.546121 -3.11693,0.811853 -10.90312,0.944541 -55.42728,0.944541 -50.354818,0 -51.871331,0.03408 -54.322429,1.220633 -1.386817,0.671349 -3.070606,2.128699 -3.741745,3.238554 -1.20861,1.998651 -1.220263,3.793846 -1.220263,188.003464 0,184.20962 0.01165,186.00481 1.220263,188.00346 0.671139,1.10986 2.354928,2.56721 3.741745,3.23856 2.451098,1.18655 3.967611,1.22063 54.322429,1.22063 44.52416,0 52.31035,0.13269 55.42728,0.94454 16.35136,4.25899 26.73032,21.27503 22.90132,37.54612 -2.66402,11.32061 -10.51552,19.57991 -22.56725,23.73938 -2.41389,0.83311 -9.53359,0.97165 -54.59277,1.06234 -28.499282,0.0574 -54.453981,-0.12722 -57.677113,-0.41019 z"
   id="path3" /><path
   style="fill:#1c8f1c;fill-opacity:1;stroke-width:0.616867"
   d="m 376.59759,414.78684 c -0.67855,-0.14523 -2.76048,-0.57233 -4.62651,-0.94913 -5.00143,-1.00993 -10.25627,-3.91387 -14.55915,-8.0457 -10.49439,-10.07723 -12.66774,-25.84974 -5.33706,-38.73232 0.96933,-1.70347 16.58059,-17.83303 39.87556,-41.19945 l 38.28258,-38.4 -148.03217,-0.0151 c -99.36139,-0.0101 -148.9392,-0.22408 -150.79092,-0.65077 -4.31451,-0.99418 -9.88386,-3.93745 -13.53611,-7.15351 -14.1919,-12.49697 -14.23657,-34.5353 -0.0957,-47.23676 3.43859,-3.08859 9.01609,-6.07207 13.63185,-7.29186 2.07041,-0.54715 39.50659,-0.80078 150.03586,-1.01651 81.00241,-0.1581 147.27711,-0.46272 147.27711,-0.67695 0,-0.21422 -17.17824,-17.60724 -38.17387,-38.65113 -36.88834,-36.97316 -38.24872,-38.41904 -40.39638,-42.93533 -5.93267,-12.47576 -3.6566,-26.18394 5.97465,-35.98379 9.57439,-9.741983 23.69907,-12.140444 36.20042,-6.147064 4.47552,2.145644 6.14754,3.740804 51.233,48.877554 50.19588,50.25298 50.84777,50.97931 57.53197,64.10284 3.88227,7.62232 6.64622,15.34285 8.58726,23.9868 1.17533,5.23401 1.36276,7.89276 1.36276,19.33132 0,11.43856 -0.18743,14.09731 -1.36276,19.33132 -1.94104,8.64395 -4.70499,16.36448 -8.58726,23.9868 -6.63004,13.01718 -7.52408,14.01834 -55.99407,62.7024 -28.86659,28.99408 -46.37419,46.12266 -48.71677,47.66211 -5.38025,3.53569 -15.23431,6.07798 -19.78425,5.10421 z"
   id="path4" /></svg>
