<?xml version="1.0" encoding="UTF-8" standalone="no"?>
<!-- Uploaded to: SVG Repo, www.svgrepo.com, Generator: SVG Repo Mixer Tools -->

<svg
   width="800px"
   height="800px"
   viewBox="0 0 28 28"
   fill="none"
   version="1.1"
   id="svg3"
   sodipodi:docname="speaker-green.svg"
   inkscape:version="1.4.4 (dcaf3e7d9e, 2026-05-05)"
   xmlns:inkscape="http://www.inkscape.org/namespaces/inkscape"
   xmlns:sodipodi="http://sodipodi.sourceforge.net/DTD/sodipodi-0.dtd"
   xmlns="http://www.w3.org/2000/svg"
   xmlns:svg="http://www.w3.org/2000/svg">
  <defs
     id="defs3" />
  <sodipodi:namedview
     id="namedview3"
     pagecolor="#ffffff"
     bordercolor="#666666"
     borderopacity="1.0"
     inkscape:showpageshadow="2"
     inkscape:pageopacity="0.0"
     inkscape:pagecheckerboard="0"
     inkscape:deskcolor="#d1d1d1"
     inkscape:zoom="1.0375"
     inkscape:cx="400"
     inkscape:cy="400"
     inkscape:window-width="1920"
     inkscape:window-height="1032"
     inkscape:window-x="0"
     inkscape:window-y="24"
     inkscape:window-maximized="1"
     inkscape:current-layer="svg3" />
  <path
     d="M14.395 3.90244C15.1932 3.15384 16.5 3.71986 16.5 4.81425V23.1843C16.5 24.2785 15.1937 24.8446 14.3953 24.0964L9.45832 19.4703C9.134 19.1664 8.70619 18.9973 8.26174 18.9973H5.25C3.45507 18.9973 2 17.5422 2 15.7473V12.2553C2 10.4604 3.45508 9.00529 5.25 9.00529H8.26119C8.70587 9.00529 9.13388 8.836 9.45826 8.53182L14.395 3.90244Z"
     fill="#212121"
     id="path1" />
  <path
     d="M21.6436 5.18437C21.9546 4.91079 22.4285 4.94114 22.702 5.25215C24.7544 7.58537 26 10.6481 26 13.9999C26 17.3517 24.7544 20.4145 22.702 22.7477C22.4285 23.0587 21.9546 23.089 21.6436 22.8155C21.3325 22.5419 21.3022 22.068 21.5758 21.757C23.3966 19.687 24.5 16.9733 24.5 13.9999C24.5 11.0266 23.3966 8.31278 21.5758 6.24286C21.3022 5.93185 21.3325 5.45795 21.6436 5.18437Z"
     fill="#212121"
     id="path2" />
  <path
     d="M20.3528 8.3028C20.1042 7.9715 19.6341 7.90448 19.3028 8.1531C18.9715 8.40173 18.9044 8.87185 19.1531 9.20315C20.156 10.5397 20.75 12.1993 20.75 13.9999C20.75 15.8005 20.156 17.4602 19.1531 18.7967C18.9044 19.128 18.9715 19.5981 19.3028 19.8467C19.6341 20.0954 20.1042 20.0283 20.3528 19.697C21.544 18.1098 22.25 16.1362 22.25 13.9999C22.25 11.8636 21.544 9.89006 20.3528 8.3028Z"
     fill="#212121"
     id="path3" />
  <path
     style="fill:#1c8f1c;stroke:#000000;stroke-width:1.25681;fill-opacity:1"
     d="m 424.38286,695.67864 c -2.49304,-0.9365 -6.39665,-3.05052 -8.6747,-4.69783 -2.27804,-1.6473 -36.47814,-33.31833 -76.00021,-70.38008 -39.52207,-37.06175 -74.004,-68.75251 -76.6265,-70.4239 -2.62251,-1.6714 -7.58747,-4.04238 -11.03326,-5.26884 -6.19006,-2.20325 -6.92847,-2.23678 -61.68674,-2.80157 -47.69014,-0.49189 -56.27834,-0.79857 -61.56239,-2.19841 C 90.31901,529.71395 63.095241,499.0867 58.413458,460.72289 57.057834,449.61454 56.983089,350.8226 58.322228,340.14276 c 4.843619,-38.62861 31.367158,-69.26592 68.906692,-79.59404 7.40586,-2.03755 9.92197,-2.14376 63.61445,-2.68523 l 55.90362,-0.56377 6.26506,-2.43786 c 9.79524,-3.81151 12.98165,-6.28243 36.37107,-28.20419 12.06821,-11.31094 45.36387,-42.54851 73.99037,-69.41682 39.60433,-37.1719 53.31563,-49.47989 57.3494,-51.4799 4.71032,-2.33545 6.37554,-2.62767 14.93976,-2.62167 8.7462,0.006 10.1586,0.26941 15.25568,2.84371 8.25761,4.17054 15.4869,12.38115 17.96468,20.40327 1.95126,6.31747 1.96036,7.58642 1.96036,273.54032 0,241.41813 -0.14783,267.69123 -1.53249,272.35388 -0.84287,2.83826 -2.22085,6.27843 -3.06217,7.64482 -3.12178,5.07012 -9.55016,10.92881 -15.16437,13.82051 -7.39553,3.8092 -19.39434,4.67776 -26.70148,1.93285 z"
     id="path4"
     transform="scale(0.035)" />
  <path
     style="fill:#1c8f1c;fill-opacity:1;stroke:#000000;stroke-width:1.25681"
     d="m 557.76752,569.74303 c -10.58619,-3.93418 -16.85457,-16.48795 -13.12756,-26.29072 0.56403,-1.4835 4.65321,-8.1262 9.08707,-14.76154 26.66842,-39.90974 39.2646,-81.19406 39.2646,-128.69077 0,-47.49671 -12.59618,-88.78104 -39.2646,-128.69077 -4.43386,-6.63534 -8.52304,-13.27804 -9.08707,-14.76154 -4.15451,-10.9272 4.40215,-25.13593 16.35308,-27.15503 8.93083,-1.50885 15.80355,2.29134 23.51589,13.00285 60.16473,83.56147 67.18542,196.78358 17.78154,286.76112 -6.85855,12.49124 -19.21805,31.23711 -23.26036,35.27944 -5.78161,5.7816 -14.27869,7.9024 -21.26259,5.30696 z"
     id="path5"
     transform="scale(0.035)" />
  <path
     style="fill:#1c8f1c;fill-opacity:1;stroke:#000000;stroke-width:1.25681"
     d="m 626.27381,655.49597 c -8.89698,-3.17536 -13.46115,-9.12007 -14.04527,-18.29356 -0.50188,-7.88186 0.74564,-10.48456 10.82245,-22.57867 26.98902,-32.39204 46.97804,-68.51547 60.36065,-109.08157 26.19416,-79.40121 21.93621,-165.73296 -11.95586,-242.40964 -11.05621,-25.01333 -27.63315,-52.16006 -44.64667,-73.1143 -15.09052,-18.58582 -14.27899,-17.12561 -14.27899,-25.69271 0,-6.83601 0.27124,-7.91888 2.93165,-11.70419 5.17717,-7.36621 14.21316,-10.76429 22.67905,-8.52869 5.2057,1.37468 13.0776,9.07769 24.62852,24.10013 43.69979,56.83336 68.98445,119.44852 77.64836,192.28916 1.68133,14.13556 1.68133,64.90058 0,79.03614 -8.47997,71.29412 -32.83042,132.67369 -74.7461,188.41054 -12.84921,17.08607 -22.02794,26.52747 -27.11738,27.89339 -4.97804,1.336 -7.83618,1.26013 -12.28041,-0.32603 z"
     id="path6"
     transform="scale(0.035)" />
</svg>
