<?xml version="1.0" encoding="UTF-8" standalone="no"?>
<svg
   width="800px"
   height="800px"
   viewBox="0 0 48 48"
   version="1.1"
   id="svg1"
   sodipodi:docname="play-green.svg"
   inkscape:version="1.4.2 (2aeb623e1d, 2025-05-12)"
   xmlns:inkscape="http://www.inkscape.org/namespaces/inkscape"
   xmlns:sodipodi="http://sodipodi.sourceforge.net/DTD/sodipodi-0.dtd"
   xmlns="http://www.w3.org/2000/svg"
   xmlns:svg="http://www.w3.org/2000/svg"
   xmlns:rdf="http://www.w3.org/1999/02/22-rdf-syntax-ns#"
   xmlns:cc="http://creativecommons.org/ns#"
   xmlns:dc="http://purl.org/dc/elements/1.1/">
  <defs
     id="defs1" />
  <sodipodi:namedview
     id="namedview1"
     pagecolor="#ffffff"
     bordercolor="#666666"
     borderopacity="1.0"
     inkscape:showpageshadow="2"
     inkscape:pageopacity="0.0"
     inkscape:pagecheckerboard="0"
     inkscape:deskcolor="#d1d1d1"
     showgrid="false"
     inkscape:zoom="1.0375"
     inkscape:cx="400"
     inkscape:cy="400"
     inkscape:window-width="1920"
     inkscape:window-height="1032"
     inkscape:window-x="0"
     inkscape:window-y="24"
     inkscape:window-maximized="1"
     inkscape:current-layer="svg1" />
  <!-- Uploaded to: SVG Repo, www.svgrepo.com, Generator: SVG Repo Mixer Tools -->
  <title
     id="title1">ic_fluent_play_48_filled</title>
  <desc
     id="desc1">Created with Sketch.</desc>
  <g
     id="🔍-Product-Icons"
     stroke="none"
     stroke-width="1"
     fill="none"
     fill-rule="evenodd">
    <g
       id="ic_fluent_play_48_filled"
       fill="#212121"
       fill-rule="nonzero">
      <path
         d="M13.7501344,8.41212026 L38.1671892,21.1169293 C39.7594652,21.9454306 40.3786269,23.9078584 39.5501255,25.5001344 C39.2420737,26.0921715 38.7592263,26.5750189 38.1671892,26.8830707 L13.7501344,39.5878797 C12.1578584,40.4163811 10.1954306,39.7972194 9.36692926,38.2049434 C9.12586301,37.7416442 9,37.2270724 9,36.704809 L9,11.295191 C9,9.50026556 10.4550746,8.045191 12.25,8.045191 C12.6976544,8.045191 13.1396577,8.13766178 13.5485655,8.31589049 L13.7501344,8.41212026 Z"
         id="🎨-Color" />
    </g>
  </g>
  <g
     id="g2"
     stroke="none"
     stroke-width="1"
     fill="none"
     fill-rule="evenodd">
    <g
       id="g1"
       fill="#212121"
       fill-rule="nonzero">
      <path
         d="M13.7501344,8.41212026 L38.1671892,21.1169293 C39.7594652,21.9454306 40.3786269,23.9078584 39.5501255,25.5001344 C39.2420737,26.0921715 38.7592263,26.5750189 38.1671892,26.8830707 L13.7501344,39.5878797 C12.1578584,40.4163811 10.1954306,39.7972194 9.36692926,38.2049434 C9.12586301,37.7416442 9,37.2270724 9,36.704809 L9,11.295191 C9,9.50026556 10.4550746,8.045191 12.25,8.045191 C12.6976544,8.045191 13.1396577,8.13766178 13.5485655,8.31589049 L13.7501344,8.41212026 Z"
         id="path1" />
    </g>
  </g>
  <path
     style="fill:#1c8f1c;stroke-width:0.963855;fill-opacity:1"
     d="m 186.95735,662.4388 c -17.1874,-5.94956 -30.14165,-19.85932 -34.80625,-37.3736 -1.9853,-7.45424 -1.89584,-443.01056 0.0925,-450.48114 4.39867,-16.52644 17.50777,-30.87984 33.78048,-36.98685 4.94022,-1.85403 7.60944,-2.16467 18.31325,-2.13127 10.5828,0.033 13.35399,0.36753 17.83132,2.15245 9.7326,3.87996 416.79007,216.19833 421.93334,220.07752 27.23366,20.54034 27.23366,64.06784 0,84.60818 -5.22764,3.94281 -412.4796,216.33288 -421.93334,220.04669 -4.05532,1.59309 -7.90623,2.16305 -16.38554,2.42515 -10.12054,0.31284 -11.75746,0.10962 -18.82578,-2.33713 z"
     id="path2"
     transform="scale(0.06)" />
  <metadata
     id="metadata2">
    <rdf:RDF>
      <cc:Work
         rdf:about="">
        <dc:title>ic_fluent_play_48_filled</dc:title>
      </cc:Work>
    </rdf:RDF>
  </metadata>
</svg>
