<?xml version="1.0" encoding="UTF-8" standalone="no"?>
<!-- Uploaded to: SVG Repo, www.svgrepo.com, Generator: SVG Repo Mixer Tools -->

<svg
   width="800px"
   height="800px"
   viewBox="0 0 24 24"
   fill="none"
   version="1.1"
   id="svg3"
   sodipodi:docname="queue-white.svg"
   inkscape:version="1.4.3 (fcd0343856, 2026-01-01)"
   xmlns:inkscape="http://www.inkscape.org/namespaces/inkscape"
   xmlns:sodipodi="http://sodipodi.sourceforge.net/DTD/sodipodi-0.dtd"
   xmlns="http://www.w3.org/2000/svg"
   xmlns:svg="http://www.w3.org/2000/svg">
  <defs
     id="defs3" />
  <sodipodi:namedview
     id="namedview3"
     pagecolor="#ffffff"
     bordercolor="#666666"
     borderopacity="1.0"
     inkscape:showpageshadow="2"
     inkscape:pageopacity="0.0"
     inkscape:pagecheckerboard="0"
     inkscape:deskcolor="#d1d1d1"
     showgrid="false"
     inkscape:zoom="0.73362329"
     inkscape:cx="141.76213"
     inkscape:cy="441.64356"
     inkscape:window-width="1920"
     inkscape:window-height="1032"
     inkscape:window-x="0"
     inkscape:window-y="24"
     inkscape:window-maximized="1"
     inkscape:current-layer="svg3" />
  <path
     d="M5.75 2.01999C4.7835 2.01999 4 2.80349 4 3.76999V6.26999C4 7.23649 4.7835 8.01999 5.75 8.01999H18.25C19.2165 8.01999 20 7.23649 20 6.26999V3.76999C20 2.80349 19.2165 2.01999 18.25 2.01999H5.75Z"
     fill="#212121"
     id="path1" />
  <path
     d="M5.75 9.01999C4.7835 9.01999 4 9.80349 4 10.77V13.27C4 14.2365 4.7835 15.02 5.75 15.02H18.25C19.2165 15.02 20 14.2365 20 13.27V10.77C20 9.80349 19.2165 9.01999 18.25 9.01999H5.75Z"
     fill="#212121"
     id="path2" />
  <path
     d="M5.75 16.02C4.7835 16.02 4 16.8035 4 17.77V20.27C4 21.2365 4.7835 22.02 5.75 22.02H18.25C19.2165 22.02 20 21.2365 20 20.27V17.77C20 16.8035 19.2165 16.02 18.25 16.02H5.75Z"
     fill="#212121"
     id="path3" />
  <path
     style="fill:#1c8f1c;stroke-width:0.963855"
     d="m 179.43879,265.50991 c -15.93715,-3.45931 -31.98415,-15.9403 -39.02215,-30.35056 -6.42894,-13.16317 -6.44074,-13.28684 -6.44074,-67.49683 0,-45.62167 0.12537,-49.29013 1.92496,-56.32645 5.04058,-19.70847 20.39367,-35.303085 40.96661,-41.611065 5.5423,-1.699354 14.83454,-1.773198 223.13253,-1.773198 208.29799,0 217.59024,0.07384 223.13253,1.773198 20.57294,6.30798 35.92603,21.902595 40.96661,41.611065 1.79959,7.03632 1.92496,10.70478 1.92496,56.32645 0,40.4225 -0.25068,49.78613 -1.46027,54.54461 -5.46404,21.49539 -23.26748,38.857 -44.4473,43.34426 -9.63233,2.04075 -431.26765,2.00106 -440.67774,-0.0415 z"
     id="path4"
     transform="scale(0.03)" />
  <path
     style="fill:#1c8f1c;stroke-width:0.963855"
     d="m 179.27711,498.74351 c -15.68856,-3.36605 -31.84373,-15.97388 -38.86513,-30.33114 -6.56281,-13.41951 -6.55012,-13.27676 -6.22341,-70.03837 0.28749,-49.94702 0.33403,-51.02565 2.47542,-57.3677 2.75951,-8.1727 10.38148,-19.62939 16.87754,-25.36889 5.7744,-5.10188 18.03025,-11.3831 25.73558,-13.18968 7.79985,-1.82874 433.64593,-1.82874 441.44578,0 7.70533,1.80658 19.96119,8.0878 25.73558,13.18968 6.49606,5.7395 14.11803,17.19619 16.87754,25.36889 2.14139,6.34205 2.18793,7.42068 2.47542,57.3677 0.2503,43.48542 0.075,51.77323 -1.20278,56.86747 -5.4572,21.75669 -23.12037,39.0344 -44.54641,43.5743 -9.66132,2.0471 -431.22928,1.97799 -440.78513,-0.0723 z"
     id="path5"
     transform="scale(0.03)" />
  <path
     style="fill:#1c8f1c;stroke-width:0.963855"
     d="m 177.54382,731.54491 c -16.25328,-4.2581 -30.42334,-15.87978 -37.5806,-30.82202 -2.15837,-4.50602 -4.41516,-10.79518 -5.01511,-13.9759 -0.74993,-3.97593 -0.99697,-21.44555 -0.79054,-55.90362 l 0.30026,-50.12048 2.37322,-6.74699 c 5.08644,-14.46056 16.46318,-27.07006 30.39787,-33.69173 13.11359,-6.23148 -3.0726,-5.82634 232.77108,-5.82634 236.17159,0 219.5924,-0.42105 232.99661,5.91722 13.79734,6.52416 24.54815,18.43409 29.91531,33.14068 l 2.63025,7.20716 0.28113,50.90413 c 0.31337,56.74196 0.32708,56.58772 -6.22758,70.05973 -2.59697,5.33765 -5.4313,9.12866 -10.83354,14.49026 -8.40855,8.34527 -15.84481,12.6402 -26.68605,15.41293 -7.3078,1.86902 -11.39978,1.90306 -222.47127,1.85097 -208.54157,-0.0515 -215.2387,-0.10866 -222.06104,-1.896 z"
     id="path6"
     transform="scale(0.03)" />
  <path
     style="fill:#ffffff;stroke-width:1.3631"
     d="m 179.04973,264.3993 c -15.37568,-3.07638 -30.56048,-15.37104 -38.28827,-31.00082 l -5.13327,-10.38225 -0.4336,-51.8726 c -0.38011,-45.47278 -0.14721,-52.93849 1.88772,-60.51195 4.48958,-16.709051 16.022,-29.548842 34.17993,-38.054736 l 7.98507,-3.740525 h 220.89252 220.89254 l 10.15248,5.037209 c 10.89226,5.404258 21.37518,14.713631 26.59916,23.621444 6.99738,11.931788 7.59311,18.095968 7.14204,73.900628 l -0.41606,51.47073 -4.37365,9.23339 c -5.74567,12.12991 -16.51907,22.9033 -28.64898,28.64898 l -9.23339,4.37365 -218.77714,0.20364 c -120.32742,0.11202 -221.31962,-0.30504 -224.4271,-0.92679 z"
     id="path7"
     transform="scale(0.03)" />
  <path
     style="fill:#ffffff;stroke-width:1.3631"
     d="m 253.53612,499.02152 -77.01501,-0.80942 -8.17858,-4.07016 c -10.62221,-5.28629 -23.52973,-18.17691 -28.68172,-28.64417 l -4.02549,-8.17859 -0.43213,-52.18112 c -0.29349,-35.44059 0.0673,-54.5867 1.12452,-59.67944 1.03406,-4.98101 3.87372,-10.96262 8.45851,-17.81746 7.3806,-11.03491 14.83294,-16.90271 28.57834,-22.5019 l 7.24585,-2.9516 h 219.45868 219.45868 l 7.40418,3.014 c 15.73901,6.40686 27.47623,17.52292 34.68196,32.8465 2.79018,5.93354 2.8846,7.95972 2.89024,62.02093 l 0.006,55.88699 -4.27769,9.02832 c -7.14863,15.08763 -19.04469,26.07584 -33.68241,31.11196 -6.79241,2.33693 -16.24955,2.53113 -151.62151,3.11349 -79.4075,0.34161 -179.03401,0.25686 -221.39226,-0.18833 z"
     id="path8"
     transform="scale(0.03)" />
  <path
     style="fill:#ffffff;stroke-width:1.3631"
     d="m 218.09559,732.03915 c -41.45364,-0.73525 -41.59696,-0.74793 -49.31025,-4.36379 -14.00845,-6.5669 -25.47708,-19.35383 -30.97933,-34.54033 -2.88229,-7.95528 -2.95248,-9.64868 -2.57051,-62.02093 l 0.39269,-53.84235 3.9914,-8.17858 c 5.08705,-10.42366 18.01315,-23.31431 28.72294,-28.64417 l 8.17858,-4.07017 h 223.54798 223.54797 l 9.82622,5.25091 c 12.46832,6.66278 21.13628,15.90287 27.17115,28.96455 l 4.72068,10.21729 -0.41255,54.11708 -0.41257,54.11708 -4.61951,9.85566 c -5.60608,11.96052 -16.828,23.29847 -28.39305,28.68667 -7.683,3.57953 -8.73381,3.69412 -41.9578,4.57525 -39.59943,1.0502 -310.3355,0.9597 -371.44404,-0.12417 z"
     id="path9"
     transform="scale(0.03)" />
</svg>
