<?xml version="1.0" encoding="UTF-8" standalone="no"?>
<!-- Uploaded to: SVG Repo, www.svgrepo.com, Generator: SVG Repo Mixer Tools -->

<svg
   width="800px"
   height="800px"
   viewBox="0 -2 32 32"
   version="1.1"
   id="svg1"
   sodipodi:docname="radio-green.svg"
   inkscape:version="1.4.2 (2aeb623e1d, 2025-05-12)"
   xmlns:inkscape="http://www.inkscape.org/namespaces/inkscape"
   xmlns:sodipodi="http://sodipodi.sourceforge.net/DTD/sodipodi-0.dtd"
   xmlns="http://www.w3.org/2000/svg"
   xmlns:svg="http://www.w3.org/2000/svg"
   xmlns:rdf="http://www.w3.org/1999/02/22-rdf-syntax-ns#"
   xmlns:cc="http://creativecommons.org/ns#"
   xmlns:dc="http://purl.org/dc/elements/1.1/"
   xmlns:sketch="http://www.bohemiancoding.com/sketch/ns">
  <sodipodi:namedview
     id="namedview1"
     pagecolor="#ffffff"
     bordercolor="#666666"
     borderopacity="1.0"
     inkscape:showpageshadow="2"
     inkscape:pageopacity="0.0"
     inkscape:pagecheckerboard="0"
     inkscape:deskcolor="#d1d1d1"
     showgrid="false"
     inkscape:zoom="1.0375"
     inkscape:cx="400"
     inkscape:cy="400"
     inkscape:window-width="1920"
     inkscape:window-height="1032"
     inkscape:window-x="0"
     inkscape:window-y="24"
     inkscape:window-maximized="1"
     inkscape:current-layer="svg1" />
  <title
     id="title1">radio</title>
  <desc
     id="desc1">Created with Sketch Beta.</desc>
  <defs
     id="defs1" />
  <g
     id="Page-1"
     stroke="none"
     stroke-width="1"
     fill="none"
     fill-rule="evenodd"
     sketch:type="MSPage">
    <g
       id="Icon-Set-Filled"
       sketch:type="MSLayerGroup"
       transform="translate(-310.000000, -519.000000)"
       fill="#000000">
      <path
         d="M331,542 C327.687,542 325,539.314 325,536 C325,532.687 327.687,530 331,530 C334.313,530 337,532.687 337,536 C337,539.314 334.313,542 331,542 L331,542 Z M321,533 L315,533 C314.447,533 314,532.553 314,532 C314,531.447 314.447,531 315,531 L321,531 C321.553,531 322,531.447 322,532 C322,532.553 321.553,533 321,533 L321,533 Z M321,537 L315,537 C314.447,537 314,536.553 314,536 C314,535.447 314.447,535 315,535 L321,535 C321.553,535 322,535.447 322,536 C322,536.553 321.553,537 321,537 L321,537 Z M321,541 L315,541 C314.447,541 314,540.553 314,540 C314,539.448 314.447,539 315,539 L321,539 C321.553,539 322,539.448 322,540 C322,540.553 321.553,541 321,541 L321,541 Z M338,525 L335.9,525 L325.366,519.12 C324.888,518.854 324.276,519.013 324,519.472 C323.724,519.931 323.888,520.518 324.366,520.783 L331.975,525 L314,525 C311.791,525 310,526.791 310,529 L310,543 C310,545.209 311.791,547 314,547 L338,547 C340.209,547 342,545.209 342,543 L342,529 C342,526.791 340.209,525 338,525 L338,525 Z M331,532 C328.791,532 327,533.791 327,536 C327,538.209 328.791,540 331,540 C333.209,540 335,538.209 335,536 C335,533.791 333.209,532 331,532 L331,532 Z"
         id="radio"
         sketch:type="MSShapeGroup" />
    </g>
  </g>
  <path
     style="fill:#1c8f1c;stroke-width:0.963855"
     d="M 88.730745,748.79835 C 66.87763,746.26636 45.718353,735.96672 29.966204,720.1937 21.080883,711.2966 15.66618,703.53185 9.9874333,691.54389 4.5477659,680.06065 2.1158588,670.41341 0.88162911,655.42169 0.2316428,647.52655 0.00901166,582.07439 0.23576684,465.54217 0.62104896,267.541 0.05818766,283.82616 7.1730494,264.82705 13.355452,248.31793 25.95184,231.49875 40.226991,220.69218 c 12.599792,-9.53829 30.543801,-17.03035 45.906601,-19.16712 5.206768,-0.72419 77.192728,-1.04313 235.438818,-1.04313 128.70858,0 227.71372,-0.36444 227.42158,-0.83712 -0.28455,-0.46042 -43.49507,-24.64115 -96.02337,-53.73494 -57.79476,-32.01074 -96.78798,-54.172912 -98.75269,-56.127064 -1.78569,-1.776084 -4.01804,-4.812229 -4.96079,-6.746988 -2.29682,-4.71363 -2.27365,-13.992222 0.0461,-18.457505 5.57738,-10.735931 17.77447,-16.509637 28.5281,-13.504277 1.85542,0.518543 63.22173,34.347449 136.36958,75.175344 l 132.99607,74.23255 h 29.58478 c 31.80471,0 40.25752,0.72948 52.33512,4.51657 34.91721,10.94874 60.73895,39.70775 68.63942,76.44728 1.67199,7.77524 1.76177,17.64875 1.76177,193.73494 0,185.52129 -2.3e-4,185.5432 -2.04343,194.70328 -9.65804,43.29888 -43.75767,74.05277 -87.59512,79.00061 -10.79254,1.21813 -610.609756,1.13483 -621.148775,-0.0863 z M 553.60949,622.65339 c 43.86363,-8.56027 81.71,-36.09666 103.14826,-75.04896 22.42902,-40.75243 24.67811,-90.67271 5.9975,-133.11907 -19.51259,-44.33684 -58.77248,-76.18768 -107.17639,-86.95029 -8.19929,-1.82311 -12.49458,-2.12724 -30.27766,-2.14384 -23.36824,-0.0218 -31.69747,1.25459 -50.18947,7.69124 -49.14965,17.10787 -86.00797,58.96011 -97.39029,110.58566 -2.49776,11.32882 -3.52274,38.87895 -1.89996,51.06835 9.08409,68.23431 63.27707,121.4787 132.13033,129.81754 11.30167,1.36876 33.67802,0.43728 45.65768,-1.90063 z M 283.49674,599.00925 c 10.26612,-3.49802 16.60033,-12.66105 16.65707,-24.09601 0.0288,-5.79682 -0.39116,-7.53405 -2.91229,-12.04819 -3.20277,-5.73466 -9.51884,-10.77636 -15.62484,-12.47227 -2.27814,-0.63274 -31.43627,-0.98444 -81.61668,-0.98444 -50.18041,0 -79.33854,0.3517 -81.61668,0.98444 -6.106,1.69591 -12.42207,6.73761 -15.62484,12.47227 -5.735145,10.26892 -3.147116,24.31041 5.84718,31.72427 7.21444,5.94675 3.8746,5.73323 90.98167,5.81651 68.9992,0.066 80.16234,-0.11983 83.90941,-1.39658 z m 2.29341,-101.03461 c 5.32955,-2.48184 10.52377,-7.79249 12.79838,-13.08526 2.20367,-5.12769 2.01372,-15.05688 -0.38878,-20.32188 -2.51989,-5.5223 -7.33125,-10.3443 -12.88773,-12.91627 -4.30029,-1.99052 -5.23968,-2.01268 -85.31202,-2.01268 -80.07234,0 -81.01173,0.0222 -85.31202,2.01268 -5.55648,2.57197 -10.36784,7.39397 -12.88773,12.91627 -2.402496,5.265 -2.592452,15.19419 -0.38878,20.32188 2.27461,5.29277 7.46883,10.60342 12.79838,13.08526 l 4.82629,2.24749 H 200 280.96386 Z m 0.0921,-99.9503 c 5.89027,-2.85144 11.52834,-9.38901 13.33039,-15.45714 1.89743,-6.38936 1.89321,-8.86449 -0.0262,-15.40431 -1.90867,-6.50306 -9.37557,-14.28718 -15.44275,-16.09878 -5.72056,-1.70812 -161.76664,-1.70812 -167.4872,0 -6.06718,1.8116 -13.53408,9.59572 -15.44275,16.09878 -1.919452,6.53982 -1.923674,9.01495 -0.0262,15.40431 1.78977,6.02678 7.36225,12.51963 13.24348,15.43081 3.99455,1.97728 4.99038,2.00048 85.90577,2.00123 80.55757,7.5e-4 81.9295,-0.0308 85.94554,-1.9749 z"
     id="path1"
     transform="matrix(0.04,0,0,0.04,0,-2)" />
  <path
     style="fill:#1c8f1c;stroke-width:0.963855"
     d="m 507.72352,573.00084 c -19.93077,-3.77669 -36.47966,-12.34136 -51.25527,-26.52655 -22.41086,-21.51532 -33.25236,-50.2612 -30.38528,-80.5656 1.21416,-12.83342 3.88058,-22.04069 10.01531,-34.58339 9.90481,-20.25078 25.10476,-35.44962 45.3475,-45.34421 16.53224,-8.08089 23.56175,-9.60863 43.85542,-9.53116 14.14609,0.054 18.07462,0.39803 24.34946,2.13234 22.03131,6.08924 41.29304,19.01378 54.76863,36.74949 6.66551,8.77273 13.88451,23.82423 16.92735,35.29328 3.47448,13.09592 3.74871,34.1748 0.60789,46.72436 -9.12009,36.44051 -36.68385,64.6707 -72.07501,73.81763 -12.20817,3.15523 -30.89307,3.96804 -42.156,1.83381 z"
     id="path2"
     transform="matrix(0.04,0,0,0.04,0,-2)" />
  <metadata
     id="metadata2">
    <rdf:RDF>
      <cc:Work
         rdf:about="">
        <dc:title>radio</dc:title>
      </cc:Work>
    </rdf:RDF>
  </metadata>
</svg>
