<?xml version="1.0" encoding="UTF-8" standalone="no"?>
<!-- Uploaded to: SVG Repo, www.svgrepo.com, Generator: SVG Repo Mixer Tools -->

<svg
   width="800px"
   height="800px"
   viewBox="0 0 28 28"
   fill="none"
   version="1.1"
   id="svg1"
   sodipodi:docname="settings-green.svg"
   inkscape:version="1.4.3 (fcd0343856, 2026-01-01)"
   xmlns:inkscape="http://www.inkscape.org/namespaces/inkscape"
   xmlns:sodipodi="http://sodipodi.sourceforge.net/DTD/sodipodi-0.dtd"
   xmlns="http://www.w3.org/2000/svg"
   xmlns:svg="http://www.w3.org/2000/svg">
  <defs
     id="defs1" />
  <sodipodi:namedview
     id="namedview1"
     pagecolor="#ffffff"
     bordercolor="#666666"
     borderopacity="1.0"
     inkscape:showpageshadow="2"
     inkscape:pageopacity="0.0"
     inkscape:pagecheckerboard="0"
     inkscape:deskcolor="#d1d1d1"
     inkscape:zoom="1.0375"
     inkscape:cx="400"
     inkscape:cy="400"
     inkscape:window-width="1920"
     inkscape:window-height="1032"
     inkscape:window-x="0"
     inkscape:window-y="24"
     inkscape:window-maximized="1"
     inkscape:current-layer="svg1" />
  <path
     d="M19.9818 21.6364L21.7093 22.3948C22.0671 22.5518 22.4849 22.4657 22.7517 22.1799C23.9944 20.8492 24.9198 19.2536 25.4586 17.5131C25.5748 17.1376 25.441 16.7296 25.1251 16.4965L23.5988 15.3698C23.1628 15.0489 22.9 14.5403 22.9 13.9994C22.9 13.4586 23.1628 12.95 23.5978 12.6297L25.1228 11.5035C25.4386 11.2703 25.5723 10.8623 25.4561 10.487C24.9172 8.74611 23.9912 7.1504 22.7478 5.81991C22.4807 5.53405 22.0626 5.44818 21.7048 5.60568L19.9843 6.36294C19.769 6.45838 19.5385 6.507 19.3055 6.50663C18.4387 6.50572 17.7116 5.85221 17.617 4.98937L17.4079 3.11017C17.3643 2.71823 17.077 2.39734 16.6928 2.31149C15.8128 2.11485 14.9147 2.01047 14.0131 2.00006C13.0891 2.01071 12.19 2.11504 11.3089 2.31138C10.9245 2.39704 10.637 2.71803 10.5933 3.11017L10.3844 4.98794C10.3244 5.52527 10.0133 6.00264 9.54617 6.27415C9.07696 6.54881 8.50793 6.58168 8.01296 6.36404L6.29276 5.60691C5.93492 5.44941 5.51684 5.53528 5.24971 5.82114C4.00637 7.15163 3.08038 8.74734 2.54142 10.4882C2.42513 10.8638 2.55914 11.272 2.87529 11.5051L4.40162 12.6306C4.83721 12.9512 5.09414 13.4598 5.09414 14.0007C5.09414 14.5415 4.83721 15.0501 4.40219 15.3703L2.8749 16.4977C2.55922 16.7307 2.42533 17.1384 2.54122 17.5137C3.07924 19.2561 4.00474 20.8536 5.24806 22.1859C5.51493 22.4718 5.93281 22.558 6.29071 22.4009L8.01859 21.6424C8.51117 21.4269 9.07783 21.4586 9.54452 21.7281C10.0112 21.9976 10.3225 22.4731 10.3834 23.0093L10.5908 24.8855C10.6336 25.273 10.9148 25.5917 11.2933 25.682C13.0725 26.1061 14.9263 26.1061 16.7055 25.682C17.084 25.5917 17.3651 25.273 17.408 24.8855L17.6157 23.0066C17.675 22.4693 17.9729 21.9924 18.44 21.7219C18.9071 21.4515 19.4876 21.4197 19.9818 21.6364ZM14 18C11.7909 18 10 16.2091 10 14C10 11.7909 11.7909 10 14 10C16.2091 10 18 11.7909 18 14C18 16.2091 16.2091 18 14 18Z"
     fill="#212121"
     id="path1" />
  <path
     style="fill:#1c8f1c;stroke:#1c8f1c;stroke-width:0.963855"
     d="m 375.42169,741.58077 c -27.91389,-2.80466 -53.34715,-7.65171 -59.70715,-11.37892 -4.82333,-2.82666 -8.37174,-6.99987 -10.70976,-12.59557 -0.9546,-2.28467 -2.82411,-15.18091 -4.81299,-33.20112 -1.78867,-16.20597 -3.95014,-32.06781 -4.80329,-35.24853 -6.5041,-24.2488 -32.19392,-39.47888 -57.50973,-34.09436 -2.80923,0.59751 -17.90287,6.73263 -33.54142,13.63361 -27.36821,12.07705 -28.68657,12.54966 -35.18072,12.61183 -11.61631,0.11121 -16.45297,-3.66708 -36.33052,-28.38056 -23.3932,-29.08442 -43.41566,-65.47973 -56.16023,-102.08378 -4.055479,-11.64785 -4.495948,-13.72925 -4.201323,-19.8529 0.555632,-11.54855 2.122446,-13.30354 30.709153,-34.39736 13.49542,-9.95813 26.57353,-20.11111 29.06246,-22.56218 8.61099,-8.48001 13.306,-20.4878 13.306,-34.03093 0,-13.54838 -4.70215,-25.56977 -13.306,-34.01781 -2.48893,-2.44386 -15.56919,-12.60036 -29.06724,-22.57001 -28.372627,-20.95598 -30.085521,-22.85543 -30.71889,-34.06449 -0.415392,-7.35142 1.247017,-13.30083 9.681732,-34.64889 14.996721,-37.95635 39.759298,-77.51859 65.444898,-104.55884 8.28598,-8.72298 13.44177,-11.46694 21.5347,-11.46095 5.3523,0.004 8.03288,0.97633 32.81634,11.90414 14.84337,6.54491 29.52057,12.69658 32.61599,13.67039 6.76516,2.12829 19.1679,2.33135 26.30604,0.43067 16.42526,-4.37353 30.29079,-17.96142 34.53231,-33.84084 0.84959,-3.18072 3.02804,-19.08317 4.84099,-35.33877 1.95485,-17.528002 3.91612,-31.039173 4.81945,-33.201133 4.15961,-9.955362 10.15149,-13.937977 26.02952,-17.301028 44.62121,-9.451011 95.49819,-9.279265 140.18246,0.473216 13.57085,2.961882 19.74905,7.364568 23.74075,16.918061 0.9546,2.284671 2.82411,15.180918 4.81299,33.201134 1.78867,16.20596 3.94664,32.0678 4.79551,35.24852 3.77733,14.15372 15.07362,26.58231 29.39231,32.33851 7.16144,2.87894 21.38901,3.64628 29.37813,1.58447 3.18036,-0.82078 17.69237,-6.74746 32.24891,-13.17039 14.55654,-6.42293 28.39461,-12.11017 30.75124,-12.6383 5.70833,-1.27926 13.3314,0.34046 18.19963,3.86699 4.80339,3.47956 15.37331,15.1366 25.3615,27.96995 21.75516,27.95217 39.66155,60.69057 52.4815,95.95239 6.68343,18.38303 6.83988,26.34981 0.69637,35.45851 -1.57152,2.33002 -11.42648,10.26466 -27.23383,21.9271 -13.62414,10.05169 -26.80808,20.45343 -29.29765,23.115 -9.39199,10.04079 -14.26041,25.91204 -12.19014,39.74035 1.36716,9.13191 7.12592,20.94417 13.03979,26.74699 2.4312,2.38554 15.56279,12.57831 29.18133,22.6506 28.61025,21.16019 30.30247,23.03454 30.93715,34.26677 0.29572,5.23342 -0.16034,8.15381 -2.27576,14.57288 -14.7223,44.67364 -39.92927,88.34938 -70.83031,122.72662 -3.3356,3.71084 -7.76137,7.91486 -9.83504,9.34226 -4.98068,3.42842 -12.63119,5.00579 -18.19495,3.7514 -2.33487,-0.5264 -16.10678,-6.17756 -30.60423,-12.55812 -14.49745,-6.38055 -28.56413,-12.25585 -31.25928,-13.05622 -2.71802,-0.80717 -8.60759,-1.45523 -13.22509,-1.45523 -14.13775,0 -24.69145,4.272 -34.30611,13.88666 -6.31583,6.31582 -9.88787,12.34979 -12.34496,20.85331 -0.83595,2.89302 -2.99968,18.76247 -4.80829,35.26545 -3.46701,31.63524 -4.29179,35.18792 -9.63726,41.51161 -5.24475,6.20453 -18.12925,9.97644 -48.83665,14.2968 -10.53114,1.48168 -56.60098,2.73244 -65.97034,1.79104 z m 41.93172,-228.2743 c 42.90348,-6.46769 79.04035,-37.29551 91.9513,-78.44226 18.9907,-60.52269 -14.49821,-125.38181 -74.4405,-144.17146 -53.87191,-16.88681 -111.98892,7.39889 -137.024,57.25906 -25.48698,50.76017 -10.93582,111.39642 34.81451,145.0759 7.70097,5.66913 22.86988,13.25975 32.64648,16.33651 16.28809,5.12598 34.8663,6.53302 52.05221,3.94225 z"
     id="path2"
     transform="scale(0.035)" />
</svg>
